<mxfile host="app.diagrams.net" modified="2022-05-25T09:01:40.493Z" agent="5.0 (Macintosh; Intel Mac OS X 10_15_7) AppleWebKit/537.36 (KHTML, like Gecko) Chrome/101.0.4951.64 Safari/537.36" etag="_gweB78rytQ4iJbauDbf" version="18.1.2" type="github">
  <diagram name="Page-1" id="ad52d381-51e7-2e0d-a935-2d0ddd2fd229">
    <mxGraphModel dx="3626" dy="1582" grid="1" gridSize="10" guides="1" tooltips="1" connect="1" arrows="1" fold="1" page="1" pageScale="1" pageWidth="1100" pageHeight="850" background="none" math="0" shadow="0">
      <root>
        <mxCell id="0" />
        <mxCell id="1" parent="0" />
        <mxCell id="Zv8lDHtKmZKxSkJ4GSAf-7" value="" style="ellipse;whiteSpace=wrap;html=1;aspect=fixed;fillColor=#ffe6cc;strokeColor=none;sketch=0;fillStyle=zigzag;" vertex="1" parent="1">
          <mxGeometry x="-1610" y="-405" width="1680" height="1680" as="geometry" />
        </mxCell>
        <mxCell id="Zv8lDHtKmZKxSkJ4GSAf-5" value="" style="ellipse;whiteSpace=wrap;html=1;aspect=fixed;fillColor=#60a917;strokeColor=none;sketch=1;fontColor=#ffffff;" vertex="1" parent="1">
          <mxGeometry x="-510" y="-130" width="430" height="430" as="geometry" />
        </mxCell>
        <mxCell id="Zv8lDHtKmZKxSkJ4GSAf-3" value="" style="ellipse;whiteSpace=wrap;html=1;aspect=fixed;fillColor=#fa6800;strokeColor=none;sketch=1;fontColor=#000000;" vertex="1" parent="1">
          <mxGeometry x="-895" y="120" width="540" height="540" as="geometry" />
        </mxCell>
        <mxCell id="Zv8lDHtKmZKxSkJ4GSAf-1" value="Start" style="ellipse;whiteSpace=wrap;html=1;aspect=fixed;" vertex="1" parent="1">
          <mxGeometry x="-980" y="570" width="80" height="80" as="geometry" />
        </mxCell>
        <mxCell id="Zv8lDHtKmZKxSkJ4GSAf-2" value="" style="ellipse;whiteSpace=wrap;html=1;aspect=fixed;fillColor=#FA1600;strokeColor=none;fontColor=#ffffff;sketch=1;" vertex="1" parent="1">
          <mxGeometry x="-760" y="210" width="270" height="270" as="geometry" />
        </mxCell>
        <mxCell id="Zv8lDHtKmZKxSkJ4GSAf-8" value="Shelter" style="ellipse;whiteSpace=wrap;html=1;aspect=fixed;fillColor=#0050ef;strokeColor=#001DBC;fontColor=#ffffff;" vertex="1" parent="1">
          <mxGeometry x="-350" y="70" width="80" height="80" as="geometry" />
        </mxCell>
        <mxCell id="Zv8lDHtKmZKxSkJ4GSAf-9" value="" style="ellipse;whiteSpace=wrap;html=1;aspect=fixed;fillColor=#008a00;strokeColor=none;sketch=1;fontColor=#ffffff;" vertex="1" parent="1">
          <mxGeometry x="-960" y="160" width="200" height="200" as="geometry" />
        </mxCell>
        <mxCell id="Zv8lDHtKmZKxSkJ4GSAf-10" value="Military" style="ellipse;whiteSpace=wrap;html=1;aspect=fixed;fillColor=#6d8764;fontColor=#ffffff;strokeColor=#3A5431;" vertex="1" parent="1">
          <mxGeometry x="-900" y="220" width="80" height="80" as="geometry" />
        </mxCell>
        <mxCell id="Zv8lDHtKmZKxSkJ4GSAf-11" value="" style="ellipse;whiteSpace=wrap;html=1;aspect=fixed;fillColor=#a20025;strokeColor=none;fontColor=#ffffff;sketch=1;fillStyle=cross-hatch;" vertex="1" parent="1">
          <mxGeometry x="-1150" y="-20" width="270" height="270" as="geometry" />
        </mxCell>
        <mxCell id="Zv8lDHtKmZKxSkJ4GSAf-12" value="School" style="ellipse;whiteSpace=wrap;html=1;aspect=fixed;" vertex="1" parent="1">
          <mxGeometry x="-550" y="580" width="80" height="80" as="geometry" />
        </mxCell>
        <mxCell id="Zv8lDHtKmZKxSkJ4GSAf-13" value="Union" style="ellipse;whiteSpace=wrap;html=1;aspect=fixed;" vertex="1" parent="1">
          <mxGeometry x="-670" y="460" width="80" height="80" as="geometry" />
        </mxCell>
        <mxCell id="Zv8lDHtKmZKxSkJ4GSAf-14" value="Seperation" style="ellipse;whiteSpace=wrap;html=1;aspect=fixed;" vertex="1" parent="1">
          <mxGeometry x="-770" y="330" width="80" height="80" as="geometry" />
        </mxCell>
        <mxCell id="Zv8lDHtKmZKxSkJ4GSAf-15" value="Reunion" style="ellipse;whiteSpace=wrap;html=1;aspect=fixed;" vertex="1" parent="1">
          <mxGeometry x="-790" y="75" width="80" height="80" as="geometry" />
        </mxCell>
        <mxCell id="Zv8lDHtKmZKxSkJ4GSAf-16" value="Son Died" style="ellipse;whiteSpace=wrap;html=1;aspect=fixed;" vertex="1" parent="1">
          <mxGeometry x="-650" y="260" width="80" height="80" as="geometry" />
        </mxCell>
        <mxCell id="Zv8lDHtKmZKxSkJ4GSAf-22" value="" style="endArrow=classic;html=1;rounded=0;strokeWidth=2;strokeColor=#FF0063;" edge="1" parent="1" source="Zv8lDHtKmZKxSkJ4GSAf-1" target="Zv8lDHtKmZKxSkJ4GSAf-12">
          <mxGeometry width="50" height="50" relative="1" as="geometry">
            <mxPoint x="-700" y="310" as="sourcePoint" />
            <mxPoint x="-650" y="260" as="targetPoint" />
          </mxGeometry>
        </mxCell>
        <mxCell id="Zv8lDHtKmZKxSkJ4GSAf-24" value="" style="endArrow=classic;html=1;strokeWidth=4;fillColor=#d80073;strokeColor=#FF0063;rounded=1;" edge="1" parent="1">
          <mxGeometry width="50" height="50" relative="1" as="geometry">
            <mxPoint x="-1350" y="635" as="sourcePoint" />
            <mxPoint x="-1300" y="585" as="targetPoint" />
          </mxGeometry>
        </mxCell>
        <mxCell id="Zv8lDHtKmZKxSkJ4GSAf-25" value="Mom" style="rounded=0;whiteSpace=wrap;html=1;sketch=1;fillStyle=cross-hatch;fillColor=none;strokeColor=none;fontSize=22;" vertex="1" parent="1">
          <mxGeometry x="-1370" y="640" width="80" height="30" as="geometry" />
        </mxCell>
        <mxCell id="Zv8lDHtKmZKxSkJ4GSAf-26" value="" style="endArrow=classic;html=1;strokeWidth=4;fillColor=#d80073;strokeColor=#298F3A;rounded=1;" edge="1" parent="1">
          <mxGeometry width="50" height="50" relative="1" as="geometry">
            <mxPoint x="-1280" y="635" as="sourcePoint" />
            <mxPoint x="-1230" y="585" as="targetPoint" />
          </mxGeometry>
        </mxCell>
        <mxCell id="Zv8lDHtKmZKxSkJ4GSAf-27" value="Dad" style="rounded=0;whiteSpace=wrap;html=1;sketch=1;fillStyle=cross-hatch;fillColor=none;strokeColor=none;fontSize=22;" vertex="1" parent="1">
          <mxGeometry x="-1300" y="640" width="80" height="30" as="geometry" />
        </mxCell>
        <mxCell id="Zv8lDHtKmZKxSkJ4GSAf-28" value="" style="endArrow=classic;html=1;strokeWidth=4;fillColor=#d80073;strokeColor=#E39000;rounded=1;" edge="1" parent="1">
          <mxGeometry width="50" height="50" relative="1" as="geometry">
            <mxPoint x="-1210" y="635" as="sourcePoint" />
            <mxPoint x="-1160" y="585" as="targetPoint" />
          </mxGeometry>
        </mxCell>
        <mxCell id="Zv8lDHtKmZKxSkJ4GSAf-29" value="Son" style="rounded=0;whiteSpace=wrap;html=1;sketch=1;fillStyle=cross-hatch;fillColor=none;strokeColor=none;fontSize=22;" vertex="1" parent="1">
          <mxGeometry x="-1230" y="640" width="80" height="30" as="geometry" />
        </mxCell>
        <mxCell id="Zv8lDHtKmZKxSkJ4GSAf-30" value="" style="endArrow=classic;html=1;rounded=0;strokeWidth=2;strokeColor=#FF0063;exitX=0;exitY=0;exitDx=0;exitDy=0;" edge="1" parent="1" source="Zv8lDHtKmZKxSkJ4GSAf-12" target="Zv8lDHtKmZKxSkJ4GSAf-13">
          <mxGeometry width="50" height="50" relative="1" as="geometry">
            <mxPoint x="-890.0106466353973" y="620.9228312314908" as="sourcePoint" />
            <mxPoint x="-539.9891877278974" y="629.0700188900491" as="targetPoint" />
          </mxGeometry>
        </mxCell>
        <mxCell id="Zv8lDHtKmZKxSkJ4GSAf-32" value="" style="endArrow=classic;html=1;rounded=0;strokeWidth=2;strokeColor=#E39000;exitX=0.5;exitY=0;exitDx=0;exitDy=0;entryX=1;entryY=0.5;entryDx=0;entryDy=0;" edge="1" parent="1" source="Zv8lDHtKmZKxSkJ4GSAf-12" target="Zv8lDHtKmZKxSkJ4GSAf-13">
          <mxGeometry width="50" height="50" relative="1" as="geometry">
            <mxPoint x="-528.2842712474621" y="601.7157287525379" as="sourcePoint" />
            <mxPoint x="-591.7157287525379" y="538.2842712474621" as="targetPoint" />
          </mxGeometry>
        </mxCell>
        <mxCell id="Zv8lDHtKmZKxSkJ4GSAf-33" value="" style="endArrow=classic;html=1;rounded=0;strokeWidth=2;strokeColor=#298F3A;entryX=0.5;entryY=1;entryDx=0;entryDy=0;exitX=1;exitY=1;exitDx=0;exitDy=0;" edge="1" parent="1" source="Zv8lDHtKmZKxSkJ4GSAf-34" target="Zv8lDHtKmZKxSkJ4GSAf-13">
          <mxGeometry width="50" height="50" relative="1" as="geometry">
            <mxPoint x="-528.2842712474621" y="601.7157287525379" as="sourcePoint" />
            <mxPoint x="-591.7157287525379" y="538.2842712474621" as="targetPoint" />
          </mxGeometry>
        </mxCell>
        <mxCell id="Zv8lDHtKmZKxSkJ4GSAf-34" value="Mission 0" style="ellipse;whiteSpace=wrap;html=1;aspect=fixed;" vertex="1" parent="1">
          <mxGeometry x="-975" y="400" width="80" height="80" as="geometry" />
        </mxCell>
        <mxCell id="Zv8lDHtKmZKxSkJ4GSAf-35" value="" style="endArrow=classic;html=1;rounded=0;strokeWidth=2;strokeColor=#FF0063;exitX=0;exitY=0;exitDx=0;exitDy=0;entryX=1;entryY=1;entryDx=0;entryDy=0;" edge="1" parent="1" source="Zv8lDHtKmZKxSkJ4GSAf-13" target="Zv8lDHtKmZKxSkJ4GSAf-14">
          <mxGeometry width="50" height="50" relative="1" as="geometry">
            <mxPoint x="-528.2842712474621" y="601.7157287525379" as="sourcePoint" />
            <mxPoint x="-591.7157287525379" y="538.2842712474621" as="targetPoint" />
          </mxGeometry>
        </mxCell>
        <mxCell id="Zv8lDHtKmZKxSkJ4GSAf-36" value="" style="endArrow=classic;html=1;rounded=0;strokeWidth=2;strokeColor=#E39000;exitX=0.5;exitY=0;exitDx=0;exitDy=0;entryX=1;entryY=0.5;entryDx=0;entryDy=0;" edge="1" parent="1" source="Zv8lDHtKmZKxSkJ4GSAf-13" target="Zv8lDHtKmZKxSkJ4GSAf-14">
          <mxGeometry width="50" height="50" relative="1" as="geometry">
            <mxPoint x="-500" y="590" as="sourcePoint" />
            <mxPoint x="-580" y="510" as="targetPoint" />
          </mxGeometry>
        </mxCell>
        <mxCell id="Zv8lDHtKmZKxSkJ4GSAf-37" value="" style="endArrow=classic;html=1;rounded=0;strokeWidth=2;strokeColor=#298F3A;entryX=0.5;entryY=1;entryDx=0;entryDy=0;exitX=0;exitY=0.5;exitDx=0;exitDy=0;" edge="1" parent="1" source="Zv8lDHtKmZKxSkJ4GSAf-13" target="Zv8lDHtKmZKxSkJ4GSAf-10">
          <mxGeometry width="50" height="50" relative="1" as="geometry">
            <mxPoint x="-901.7157287525379" y="488.28427124746213" as="sourcePoint" />
            <mxPoint x="-620" y="550" as="targetPoint" />
          </mxGeometry>
        </mxCell>
        <mxCell id="Zv8lDHtKmZKxSkJ4GSAf-38" value="" style="endArrow=classic;html=1;rounded=0;strokeWidth=2;strokeColor=#FF0063;entryX=0;entryY=0;entryDx=0;entryDy=0;" edge="1" parent="1" source="Zv8lDHtKmZKxSkJ4GSAf-14" target="Zv8lDHtKmZKxSkJ4GSAf-16">
          <mxGeometry width="50" height="50" relative="1" as="geometry">
            <mxPoint x="-648.2842712474621" y="481.71572875253787" as="sourcePoint" />
            <mxPoint x="-691.7157287525379" y="408.28427124746213" as="targetPoint" />
          </mxGeometry>
        </mxCell>
        <mxCell id="Zv8lDHtKmZKxSkJ4GSAf-39" value="" style="endArrow=classic;html=1;rounded=0;strokeWidth=2;strokeColor=#E39000;exitX=1;exitY=0;exitDx=0;exitDy=0;entryX=0;entryY=1;entryDx=0;entryDy=0;" edge="1" parent="1" source="Zv8lDHtKmZKxSkJ4GSAf-14" target="Zv8lDHtKmZKxSkJ4GSAf-16">
          <mxGeometry width="50" height="50" relative="1" as="geometry">
            <mxPoint x="-620" y="470" as="sourcePoint" />
            <mxPoint x="-680" y="380" as="targetPoint" />
          </mxGeometry>
        </mxCell>
        <mxCell id="Zv8lDHtKmZKxSkJ4GSAf-40" value="" style="endArrow=classic;html=1;rounded=0;strokeWidth=2;strokeColor=#FF0063;entryX=1;entryY=1;entryDx=0;entryDy=0;exitX=0.5;exitY=0;exitDx=0;exitDy=0;" edge="1" parent="1" source="Zv8lDHtKmZKxSkJ4GSAf-16" target="Zv8lDHtKmZKxSkJ4GSAf-15">
          <mxGeometry width="50" height="50" relative="1" as="geometry">
            <mxPoint x="-692.7819560253051" y="350.68826033494406" as="sourcePoint" />
            <mxPoint x="-628.2842712474621" y="281.71572875253787" as="targetPoint" />
          </mxGeometry>
        </mxCell>
        <mxCell id="Zv8lDHtKmZKxSkJ4GSAf-41" value="Mission 1" style="ellipse;whiteSpace=wrap;html=1;aspect=fixed;" vertex="1" parent="1">
          <mxGeometry x="-895" y="-20" width="80" height="80" as="geometry" />
        </mxCell>
        <mxCell id="Zv8lDHtKmZKxSkJ4GSAf-42" value="" style="endArrow=classic;html=1;rounded=0;strokeWidth=2;strokeColor=#298F3A;entryX=0;entryY=0;entryDx=0;entryDy=0;" edge="1" parent="1" source="Zv8lDHtKmZKxSkJ4GSAf-41" target="Zv8lDHtKmZKxSkJ4GSAf-15">
          <mxGeometry width="50" height="50" relative="1" as="geometry">
            <mxPoint x="-660" y="510" as="sourcePoint" />
            <mxPoint x="-850" y="310" as="targetPoint" />
          </mxGeometry>
        </mxCell>
        <mxCell id="Zv8lDHtKmZKxSkJ4GSAf-43" value="" style="endArrow=classic;html=1;rounded=0;strokeWidth=2;strokeColor=#298F3A;entryX=0.425;entryY=0.975;entryDx=0;entryDy=0;exitX=0.5;exitY=0;exitDx=0;exitDy=0;entryPerimeter=0;" edge="1" parent="1" source="Zv8lDHtKmZKxSkJ4GSAf-10" target="Zv8lDHtKmZKxSkJ4GSAf-41">
          <mxGeometry width="50" height="50" relative="1" as="geometry">
            <mxPoint x="-814.7986752642851" y="56.227466217857454" as="sourcePoint" />
            <mxPoint x="-768.2842712474621" y="96.71572875253787" as="targetPoint" />
          </mxGeometry>
        </mxCell>
        <mxCell id="Zv8lDHtKmZKxSkJ4GSAf-44" value="Dangerous Mission" style="ellipse;whiteSpace=wrap;html=1;aspect=fixed;" vertex="1" parent="1">
          <mxGeometry x="-1060" y="60" width="80" height="80" as="geometry" />
        </mxCell>
        <mxCell id="Zv8lDHtKmZKxSkJ4GSAf-45" value="" style="endArrow=classic;html=1;rounded=0;strokeWidth=2;strokeColor=#298F3A;entryX=1;entryY=0;entryDx=0;entryDy=0;exitX=0;exitY=0.5;exitDx=0;exitDy=0;" edge="1" parent="1" source="Zv8lDHtKmZKxSkJ4GSAf-15" target="Zv8lDHtKmZKxSkJ4GSAf-44">
          <mxGeometry width="50" height="50" relative="1" as="geometry">
            <mxPoint x="-850" y="230" as="sourcePoint" />
            <mxPoint x="-851" y="68" as="targetPoint" />
          </mxGeometry>
        </mxCell>
        <mxCell id="Zv8lDHtKmZKxSkJ4GSAf-46" value="Final Reunion" style="ellipse;whiteSpace=wrap;html=1;aspect=fixed;" vertex="1" parent="1">
          <mxGeometry x="-530" y="130" width="80" height="80" as="geometry" />
        </mxCell>
        <mxCell id="Zv8lDHtKmZKxSkJ4GSAf-47" value="" style="endArrow=classic;html=1;rounded=0;strokeWidth=2;strokeColor=#FF0063;entryX=0;entryY=0.5;entryDx=0;entryDy=0;exitX=1;exitY=0.5;exitDx=0;exitDy=0;" edge="1" parent="1" source="Zv8lDHtKmZKxSkJ4GSAf-15" target="Zv8lDHtKmZKxSkJ4GSAf-46">
          <mxGeometry width="50" height="50" relative="1" as="geometry">
            <mxPoint x="-600" y="270" as="sourcePoint" />
            <mxPoint x="-711.7157287525379" y="153.28427124746213" as="targetPoint" />
          </mxGeometry>
        </mxCell>
        <mxCell id="Zv8lDHtKmZKxSkJ4GSAf-48" value="" style="endArrow=classic;html=1;rounded=0;strokeWidth=2;strokeColor=#298F3A;entryX=0;entryY=1;entryDx=0;entryDy=0;exitX=1;exitY=0;exitDx=0;exitDy=0;" edge="1" parent="1" source="Zv8lDHtKmZKxSkJ4GSAf-10" target="Zv8lDHtKmZKxSkJ4GSAf-46">
          <mxGeometry width="50" height="50" relative="1" as="geometry">
            <mxPoint x="-780" y="125" as="sourcePoint" />
            <mxPoint x="-981.7157287525379" y="81.71572875253787" as="targetPoint" />
          </mxGeometry>
        </mxCell>
        <mxCell id="Zv8lDHtKmZKxSkJ4GSAf-49" value="" style="endArrow=classic;html=1;rounded=0;strokeWidth=2;strokeColor=#298F3A;exitX=1;exitY=0.5;exitDx=0;exitDy=0;" edge="1" parent="1" source="Zv8lDHtKmZKxSkJ4GSAf-46" target="Zv8lDHtKmZKxSkJ4GSAf-8">
          <mxGeometry width="50" height="50" relative="1" as="geometry">
            <mxPoint x="-821.7157287525379" y="241.71572875253787" as="sourcePoint" />
            <mxPoint x="-508.28427124746213" y="208.28427124746213" as="targetPoint" />
          </mxGeometry>
        </mxCell>
        <mxCell id="Zv8lDHtKmZKxSkJ4GSAf-50" value="" style="endArrow=classic;html=1;rounded=0;strokeWidth=2;strokeColor=#FF0063;exitX=1;exitY=0;exitDx=0;exitDy=0;" edge="1" parent="1" source="Zv8lDHtKmZKxSkJ4GSAf-46" target="Zv8lDHtKmZKxSkJ4GSAf-8">
          <mxGeometry width="50" height="50" relative="1" as="geometry">
            <mxPoint x="-700" y="125" as="sourcePoint" />
            <mxPoint x="-520" y="180" as="targetPoint" />
          </mxGeometry>
        </mxCell>
      </root>
    </mxGraphModel>
  </diagram>
</mxfile>
